<svg xmlns="http://www.w3.org/2000/svg" viewBox="0 0 38 36">
	<style>
		.cls-1 {
	        fill: #737778;
	        fill-rule: evenodd;
	    }
    </style>
    <g>
        <path d="M9,22 L9,25 C9,27 9,29.666 13,30 L25,30 C25.555,29.88 29,30 29,25 L29,22 35,22 C36,22 38,20 37,17.5 L37,17.5 23,4 C23,4 22,3 21,2.2 C20,1.3 18,0 15.5,3 L15.5,3 1.2,17.5 C0,20 2,22 3,22  Z" transform="translate(0 0.5)" class="cls-1"/>
    </g>
    <g>
        <path d="M9,32 L27.5,32 C27.5,32 29.5,34 27.5,36 L27.5,36 L10.5,36 C10.5,36 8.5,34 10.5,32 Z" transform="translate(0 0.5)" class="cls-1" />
    </g> 
</svg>