<svg xmlns="http://www.w3.org/2000/svg" viewBox="0 0 132 236">
	<style>
		.cls-1 {
            stroke: #999;
            stroke-width: 1px;
	        fill: white;
	    }
    </style>
    <g>
        <path d="M11,70 L11,45 C11,25 11,15 25,12 L109,12 C109,12 122,12 122,30 L122,30 122,106 C122,106 121.5,111 117,115 L117,115 102,130 C102,130 98,134 98,140 L98,140 98,215 C98,215 98,223 90,225 L90,225 44,225 C44,225 35,225 34,215 L34,215 34,138 C34,138 34,132 30,128.8 L30,128.8 16,114.33 C16,114.33 11,110 11,105 L11,105 Z" class="cls-1"/>
    </g>
</svg>